<svg width="342" height="143" viewBox="0 0 342 143" fill="none" xmlns="http://www.w3.org/2000/svg">
<g clip-path="url(#clip0_31_2920)">
<path d="M45.4485 124.727V1.13477H26.9633L0 14.2429V36.2308L17.6513 29.4653V143L45.4485 124.727Z" fill="#113855"/>
<path fill-rule="evenodd" clip-rule="evenodd" d="M52.9475 24.1209L61.5514 22.9811C68.2126 22.2211 73.8098 21.8412 78.3431 21.8412C83.8941 21.8412 87.5485 21.9837 89.3063 22.2686V0.0413659C76.8166 -0.243599 64.697 0.943755 52.9475 3.60343V24.1209ZM78.2231 103.957L78.2236 78.8884C78.2288 76.877 78.2754 75.4191 78.3635 74.5145C78.4571 73.5534 78.7379 72.7846 79.2058 72.2079C79.6737 71.6312 80.4459 71.0546 81.5221 70.4779C82.5984 69.9013 83.9788 69.2765 85.6634 68.6038L105.598 60.6747C111.961 58.272 116.547 54.9081 119.355 50.5832C122.35 46.066 123.847 39.1941 123.847 29.9676C123.847 19.2994 121.133 11.8028 115.705 7.47788C113.365 5.6518 110.581 4.33028 107.352 3.51335C104.124 2.69642 100.263 2.14378 95.7708 1.85545V31.2651C95.7708 32.9951 95.6772 34.3166 95.4901 35.2296C95.3029 36.1427 94.8817 36.9356 94.2266 37.6083C93.6651 38.2811 92.6356 38.9779 91.1382 39.6987C89.6408 40.4195 87.8627 41.2125 85.8037 42.0774L69.3791 48.8532C65.2613 50.5832 62.0091 52.5294 59.6226 54.6919C57.2361 56.8543 55.3878 59.4253 54.0775 62.4047C52.8609 65.1919 52.0654 68.5077 51.691 72.3521C51.3167 76.1965 51.1295 81.2422 51.1295 87.4894V121.437L78.2231 103.957ZM123.847 77.9291V100.195H83.8524V77.9291H123.847Z" fill="#113855"/>
<path fill-rule="evenodd" clip-rule="evenodd" d="M146.028 44.5217V31.7778H129.528V44.5217H146.028ZM146.028 100.959V53.6244H129.528V100.959H146.028ZM195.463 65.9685L163.219 100.959H153.297V88.6147L173.522 66.711H154.442V53.6244H195.463V65.9685ZM195.4 101.008V88.2641H180.101L167.9 101.008H195.4ZM244.899 65.9685L212.654 100.959H202.733V88.6147L222.957 66.711H203.878V53.6244H244.899V65.9685ZM245.66 100.273V87.5293H230.361L218.16 100.273H245.66ZM296.231 72.1111V100.959H278.502V70.9724C278.502 69.3276 278.438 68.1572 278.311 67.4613C278.183 66.7655 277.8 66.2594 277.161 65.943C276.586 65.6267 275.5 65.4053 273.902 65.2788C272.944 65.2155 270.868 65.1839 267.673 65.1839C264.607 65.1839 261.764 65.3104 259.144 65.5635L254.065 65.8482V53.512C260.071 52.3733 266.555 51.8039 273.519 51.8039C278.886 51.8039 283.086 52.1835 286.121 52.9426C289.156 53.7018 291.44 54.9038 292.973 56.5486C294.315 58.0669 295.193 59.9964 295.608 62.3371C296.024 64.6778 296.231 67.9358 296.231 72.1111ZM264.555 100.959C266.685 100.959 268.496 100.788 269.987 100.445C271.478 100.103 272.893 99.4028 274.232 98.3447V88.8218H273.319C272.345 88.8218 271.432 88.7595 270.58 88.6351C269.972 88.5728 269.515 88.3238 269.211 87.8882C268.967 87.577 268.8 87.1724 268.709 86.6745C268.618 86.1765 268.572 85.4608 268.572 84.5271C268.572 83.3446 268.602 82.5665 268.663 82.1931C268.724 81.0728 269.363 80.4815 270.58 80.4192C271.006 80.357 271.919 80.3259 273.319 80.3259H274.232V72.0167L266.564 71.83C263.582 71.83 261.178 72.0634 259.352 72.5302C257.526 72.997 256.096 73.7906 255.062 74.9109C254.027 75.969 253.297 77.4161 252.871 79.2522C252.445 81.0883 252.232 83.5002 252.232 86.4877C252.232 91.3425 253.236 94.9681 255.244 97.3644C257.253 99.7606 260.356 100.959 264.555 100.959ZM340.167 53.6864V66.3683C339.037 66.3023 337.491 66.1371 335.529 65.8729C331.842 65.4766 328.87 65.2785 326.61 65.2785H323.667V51.8039C327.888 51.8039 331.902 52.1342 335.707 52.7947L340.167 53.6864ZM325.697 100.959C330.786 100.834 334.681 99.7706 337.382 97.7693C340.461 95.3929 342 91.2029 342 85.1992C342 79.5082 341.089 75.6622 339.267 73.6609C338.45 72.7229 337.445 72.0193 336.252 71.5503C335.058 71.0812 333.644 70.7529 332.011 70.5653L320.703 69.0644C319.384 68.8768 318.598 68.6423 318.347 68.3608C318.096 68.0794 317.97 67.4697 317.97 66.5316V51.8039C312.756 52.1166 308.861 53.211 306.285 55.0871C303.206 57.4636 301.667 61.2159 301.667 66.344C301.667 68.8455 301.793 70.9405 302.044 72.6291C302.296 74.3176 302.798 75.756 303.552 76.9442C304.306 78.32 305.452 79.4144 306.992 80.2274C308.531 81.0404 310.557 81.6345 313.07 82.0098L323.247 83.4169C324.252 83.5419 324.912 83.7296 325.226 83.9797C325.54 84.2299 325.697 84.824 325.697 85.762V100.959ZM321.834 87.3852V100.959C316.87 100.893 312.528 100.562 308.805 99.968L303.501 99.0763V86.3944C305.982 86.6586 309.332 86.9228 313.551 87.187C315.77 87.3113 317.384 87.3772 318.394 87.3845L321.834 87.3852Z" fill="#113855"/>
<path d="M86.4696 110.92V109.66H89.8696V124H88.4496V110.92H86.4696Z" fill="#113855"/>
<path d="M92.7094 122.9C95.1628 121.06 97.0561 119.414 98.3894 117.96C99.7361 116.494 100.409 115.06 100.409 113.66C100.409 112.74 100.176 112.007 99.7094 111.46C99.2561 110.9 98.5094 110.62 97.4694 110.62C96.4561 110.62 95.6694 110.94 95.1094 111.58C94.5628 112.207 94.2561 113.047 94.1894 114.1H92.8294C92.9094 112.62 93.3628 111.474 94.1894 110.66C95.0294 109.834 96.1228 109.42 97.4694 109.42C98.7628 109.42 99.8094 109.787 100.609 110.52C101.409 111.24 101.809 112.267 101.809 113.6C101.809 115.214 101.136 116.78 99.7894 118.3C98.4561 119.807 96.8094 121.28 94.8494 122.72H102.249V123.9H92.7094V122.9Z" fill="#113855"/>
<path d="M106.295 120.18C106.441 121.047 106.775 121.714 107.295 122.18C107.815 122.647 108.528 122.88 109.435 122.88C110.688 122.88 111.615 122.394 112.215 121.42C112.828 120.434 113.108 118.807 113.055 116.54C112.801 117.274 112.315 117.854 111.595 118.28C110.888 118.694 110.075 118.9 109.155 118.9C107.755 118.9 106.628 118.48 105.775 117.64C104.935 116.8 104.515 115.634 104.515 114.14C104.515 113.247 104.688 112.44 105.035 111.72C105.381 111 105.908 110.434 106.615 110.02C107.321 109.607 108.188 109.4 109.215 109.4C111.108 109.4 112.428 110.02 113.175 111.26C113.921 112.487 114.295 114.254 114.295 116.56C114.295 119.054 113.921 120.927 113.175 122.18C112.441 123.434 111.175 124.06 109.375 124.06C108.055 124.06 107.028 123.707 106.295 123C105.561 122.28 105.128 121.34 104.995 120.18H106.295ZM109.375 117.7C110.001 117.7 110.575 117.574 111.095 117.32C111.628 117.054 112.055 116.667 112.375 116.16C112.695 115.654 112.855 115.047 112.855 114.34C112.855 113.247 112.541 112.347 111.915 111.64C111.301 110.934 110.415 110.58 109.255 110.58C108.228 110.58 107.401 110.9 106.775 111.54C106.161 112.18 105.855 113.034 105.855 114.1C105.855 115.22 106.161 116.1 106.775 116.74C107.388 117.38 108.255 117.7 109.375 117.7Z" fill="#113855"/>
<path d="M119.715 116.56C118.888 116.294 118.255 115.874 117.815 115.3C117.388 114.727 117.175 114.034 117.175 113.22C117.175 112.5 117.355 111.86 117.715 111.3C118.088 110.727 118.628 110.28 119.335 109.96C120.041 109.627 120.888 109.46 121.875 109.46C122.861 109.46 123.708 109.627 124.415 109.96C125.121 110.28 125.655 110.727 126.015 111.3C126.388 111.86 126.575 112.5 126.575 113.22C126.575 114.02 126.355 114.714 125.915 115.3C125.488 115.887 124.861 116.307 124.035 116.56C124.941 116.787 125.655 117.22 126.175 117.86C126.695 118.5 126.955 119.28 126.955 120.2C126.955 121.054 126.741 121.8 126.315 122.44C125.901 123.067 125.308 123.554 124.535 123.9C123.775 124.247 122.888 124.42 121.875 124.42C120.861 124.42 119.968 124.247 119.195 123.9C118.435 123.554 117.841 123.067 117.415 122.44C117.001 121.8 116.795 121.054 116.795 120.2C116.795 119.28 117.055 118.5 117.575 117.86C118.095 117.22 118.808 116.787 119.715 116.56ZM125.215 113.38C125.215 112.5 124.915 111.82 124.315 111.34C123.715 110.86 122.901 110.62 121.875 110.62C120.848 110.62 120.035 110.86 119.435 111.34C118.835 111.807 118.535 112.487 118.535 113.38C118.535 114.207 118.841 114.867 119.455 115.36C120.068 115.854 120.875 116.1 121.875 116.1C122.875 116.1 123.681 115.854 124.295 115.36C124.908 114.867 125.215 114.207 125.215 113.38ZM121.875 117.18C120.781 117.18 119.888 117.427 119.195 117.92C118.501 118.414 118.155 119.16 118.155 120.16C118.155 121.12 118.488 121.874 119.155 122.42C119.821 122.967 120.728 123.24 121.875 123.24C123.008 123.24 123.908 122.967 124.575 122.42C125.241 121.86 125.575 121.107 125.575 120.16C125.575 119.174 125.228 118.434 124.535 117.94C123.855 117.434 122.968 117.18 121.875 117.18Z" fill="#113855"/>
<path d="M129.355 113.32C129.449 112.107 129.915 111.154 130.755 110.46C131.609 109.754 132.709 109.4 134.055 109.4C134.949 109.4 135.715 109.56 136.355 109.88C136.995 110.2 137.475 110.64 137.795 111.2C138.129 111.747 138.295 112.367 138.295 113.06C138.295 113.9 138.049 114.627 137.555 115.24C137.062 115.854 136.362 116.234 135.455 116.38V116.48C136.402 116.667 137.155 117.08 137.715 117.72C138.275 118.347 138.555 119.174 138.555 120.2C138.555 121.347 138.169 122.287 137.395 123.02C136.635 123.74 135.529 124.1 134.075 124.1C132.689 124.1 131.549 123.74 130.655 123.02C129.762 122.287 129.249 121.254 129.115 119.92H130.475C130.595 120.814 130.969 121.54 131.595 122.1C132.222 122.647 133.049 122.92 134.075 122.92C135.089 122.92 135.862 122.654 136.395 122.12C136.942 121.587 137.215 120.907 137.215 120.08C137.215 118.054 135.755 117.04 132.835 117.04H132.395V115.86H132.855C135.575 115.86 136.935 114.974 136.935 113.2C136.935 112.427 136.682 111.807 136.175 111.34C135.669 110.86 134.949 110.62 134.015 110.62C133.109 110.62 132.355 110.86 131.755 111.34C131.169 111.807 130.822 112.467 130.715 113.32H129.355Z" fill="#113855"/>
<path d="M151.143 124.14C150.223 124.14 149.409 123.98 148.703 123.66C148.009 123.34 147.463 122.894 147.063 122.32C146.663 121.747 146.449 121.107 146.423 120.4H147.903C147.969 121.08 148.269 121.68 148.803 122.2C149.336 122.707 150.116 122.96 151.143 122.96C152.089 122.96 152.836 122.72 153.383 122.24C153.943 121.747 154.223 121.127 154.223 120.38C154.223 119.78 154.069 119.3 153.763 118.94C153.456 118.567 153.076 118.294 152.623 118.12C152.169 117.934 151.543 117.734 150.743 117.52C149.809 117.267 149.069 117.02 148.523 116.78C147.976 116.54 147.509 116.167 147.123 115.66C146.736 115.154 146.543 114.467 146.543 113.6C146.543 112.88 146.729 112.24 147.103 111.68C147.476 111.107 148.003 110.66 148.683 110.34C149.363 110.02 150.143 109.86 151.023 109.86C152.316 109.86 153.356 110.18 154.143 110.82C154.943 111.447 155.403 112.26 155.523 113.26H154.003C153.909 112.687 153.596 112.18 153.063 111.74C152.529 111.287 151.809 111.06 150.903 111.06C150.063 111.06 149.363 111.287 148.803 111.74C148.243 112.18 147.963 112.787 147.963 113.56C147.963 114.147 148.116 114.62 148.423 114.98C148.729 115.34 149.109 115.614 149.563 115.8C150.029 115.987 150.656 116.187 151.443 116.4C152.349 116.654 153.083 116.907 153.643 117.16C154.203 117.4 154.676 117.774 155.063 118.28C155.449 118.787 155.643 119.467 155.643 120.32C155.643 120.974 155.469 121.594 155.123 122.18C154.776 122.767 154.263 123.24 153.583 123.6C152.903 123.96 152.089 124.14 151.143 124.14Z" fill="#113855"/>
<path d="M160.168 114.26V121.04C160.168 121.707 160.295 122.167 160.548 122.42C160.801 122.674 161.248 122.8 161.888 122.8H163.168V124H161.668C160.681 124 159.948 123.774 159.468 123.32C158.988 122.854 158.748 122.094 158.748 121.04V114.26H157.228V113.08H158.748V110.34H160.168V113.08H163.168V114.26H160.168Z" fill="#113855"/>
<path d="M166.877 115.02C167.184 114.34 167.65 113.814 168.277 113.44C168.917 113.067 169.697 112.88 170.617 112.88V114.34H170.237C169.224 114.34 168.41 114.614 167.797 115.16C167.184 115.707 166.877 116.62 166.877 117.9V124H165.477V113.08H166.877V115.02Z" fill="#113855"/>
<path d="M182.603 117.98C182.603 118.46 182.59 118.827 182.563 119.08H173.503C173.543 119.907 173.743 120.614 174.103 121.2C174.463 121.787 174.936 122.234 175.523 122.54C176.11 122.834 176.75 122.98 177.443 122.98C178.35 122.98 179.11 122.76 179.723 122.32C180.35 121.88 180.763 121.287 180.963 120.54H182.443C182.176 121.607 181.603 122.48 180.723 123.16C179.856 123.827 178.763 124.16 177.443 124.16C176.416 124.16 175.496 123.934 174.683 123.48C173.87 123.014 173.23 122.36 172.763 121.52C172.31 120.667 172.083 119.674 172.083 118.54C172.083 117.407 172.31 116.414 172.763 115.56C173.216 114.707 173.85 114.054 174.663 113.6C175.476 113.147 176.403 112.92 177.443 112.92C178.483 112.92 179.39 113.147 180.163 113.6C180.95 114.054 181.55 114.667 181.963 115.44C182.39 116.2 182.603 117.047 182.603 117.98ZM181.183 117.94C181.196 117.127 181.03 116.434 180.683 115.86C180.35 115.287 179.89 114.854 179.303 114.56C178.716 114.267 178.076 114.12 177.383 114.12C176.343 114.12 175.456 114.454 174.723 115.12C173.99 115.787 173.583 116.727 173.503 117.94H181.183Z" fill="#113855"/>
<path d="M195.044 117.98C195.044 118.46 195.031 118.827 195.004 119.08H185.944C185.984 119.907 186.184 120.614 186.544 121.2C186.904 121.787 187.378 122.234 187.964 122.54C188.551 122.834 189.191 122.98 189.884 122.98C190.791 122.98 191.551 122.76 192.164 122.32C192.791 121.88 193.204 121.287 193.404 120.54H194.884C194.618 121.607 194.044 122.48 193.164 123.16C192.298 123.827 191.204 124.16 189.884 124.16C188.858 124.16 187.938 123.934 187.124 123.48C186.311 123.014 185.671 122.36 185.204 121.52C184.751 120.667 184.524 119.674 184.524 118.54C184.524 117.407 184.751 116.414 185.204 115.56C185.658 114.707 186.291 114.054 187.104 113.6C187.918 113.147 188.844 112.92 189.884 112.92C190.924 112.92 191.831 113.147 192.604 113.6C193.391 114.054 193.991 114.667 194.404 115.44C194.831 116.2 195.044 117.047 195.044 117.98ZM193.624 117.94C193.638 117.127 193.471 116.434 193.124 115.86C192.791 115.287 192.331 114.854 191.744 114.56C191.158 114.267 190.518 114.12 189.824 114.12C188.784 114.12 187.898 114.454 187.164 115.12C186.431 115.787 186.024 116.727 185.944 117.94H193.624Z" fill="#113855"/>
<path d="M199.426 114.26V121.04C199.426 121.707 199.553 122.167 199.806 122.42C200.059 122.674 200.506 122.8 201.146 122.8H202.426V124H200.926C199.939 124 199.206 123.774 198.726 123.32C198.246 122.854 198.006 122.094 198.006 121.04V114.26H196.486V113.08H198.006V110.34H199.426V113.08H202.426V114.26H199.426Z" fill="#113855"/>
<path d="M214.463 124.14C213.543 124.14 212.73 123.98 212.023 123.66C211.33 123.34 210.783 122.894 210.383 122.32C209.983 121.747 209.77 121.107 209.743 120.4H211.223C211.29 121.08 211.59 121.68 212.123 122.2C212.656 122.707 213.436 122.96 214.463 122.96C215.41 122.96 216.156 122.72 216.703 122.24C217.263 121.747 217.543 121.127 217.543 120.38C217.543 119.78 217.39 119.3 217.083 118.94C216.776 118.567 216.396 118.294 215.943 118.12C215.49 117.934 214.863 117.734 214.063 117.52C213.13 117.267 212.39 117.02 211.843 116.78C211.296 116.54 210.83 116.167 210.443 115.66C210.056 115.154 209.863 114.467 209.863 113.6C209.863 112.88 210.05 112.24 210.423 111.68C210.796 111.107 211.323 110.66 212.003 110.34C212.683 110.02 213.463 109.86 214.343 109.86C215.636 109.86 216.676 110.18 217.463 110.82C218.263 111.447 218.723 112.26 218.843 113.26H217.323C217.23 112.687 216.916 112.18 216.383 111.74C215.85 111.287 215.13 111.06 214.223 111.06C213.383 111.06 212.683 111.287 212.123 111.74C211.563 112.18 211.283 112.787 211.283 113.56C211.283 114.147 211.436 114.62 211.743 114.98C212.05 115.34 212.43 115.614 212.883 115.8C213.35 115.987 213.976 116.187 214.763 116.4C215.67 116.654 216.403 116.907 216.963 117.16C217.523 117.4 217.996 117.774 218.383 118.28C218.77 118.787 218.963 119.467 218.963 120.32C218.963 120.974 218.79 121.594 218.443 122.18C218.096 122.767 217.583 123.24 216.903 123.6C216.223 123.96 215.41 124.14 214.463 124.14Z" fill="#113855"/>
<path d="M223.488 114.26V121.04C223.488 121.707 223.615 122.167 223.868 122.42C224.122 122.674 224.568 122.8 225.208 122.8H226.488V124H224.988C224.002 124 223.268 123.774 222.788 123.32C222.308 122.854 222.068 122.094 222.068 121.04V114.26H220.548V113.08H222.068V110.34H223.488V113.08H226.488V114.26H223.488Z" fill="#113855"/>
<path d="M236.006 126H234.606V108.2H236.006V126Z" fill="#113855"/>
<path d="M246.389 122.86H251.409V124H244.989V110.02H246.389V122.86Z" fill="#113855"/>
<path d="M258.187 124.16C257.16 124.16 256.233 123.934 255.407 123.48C254.593 123.014 253.947 122.36 253.467 121.52C253 120.667 252.767 119.674 252.767 118.54C252.767 117.407 253.007 116.42 253.487 115.58C253.967 114.727 254.62 114.074 255.447 113.62C256.273 113.154 257.2 112.92 258.227 112.92C259.253 112.92 260.18 113.154 261.007 113.62C261.847 114.074 262.5 114.727 262.967 115.58C263.447 116.42 263.687 117.407 263.687 118.54C263.687 119.66 263.447 120.647 262.967 121.5C262.487 122.354 261.827 123.014 260.987 123.48C260.147 123.934 259.213 124.16 258.187 124.16ZM258.187 122.94C258.907 122.94 259.573 122.78 260.187 122.46C260.8 122.127 261.293 121.634 261.667 120.98C262.053 120.314 262.247 119.5 262.247 118.54C262.247 117.58 262.06 116.774 261.687 116.12C261.313 115.454 260.82 114.96 260.207 114.64C259.593 114.307 258.927 114.14 258.207 114.14C257.487 114.14 256.82 114.307 256.207 114.64C255.593 114.96 255.1 115.454 254.727 116.12C254.367 116.774 254.187 117.58 254.187 118.54C254.187 119.5 254.367 120.314 254.727 120.98C255.1 121.634 255.587 122.127 256.187 122.46C256.8 122.78 257.467 122.94 258.187 122.94Z" fill="#113855"/>
<path d="M275.699 113.08V124H274.299V122.08C273.979 122.76 273.485 123.28 272.819 123.64C272.152 124 271.405 124.18 270.579 124.18C269.272 124.18 268.205 123.78 267.379 122.98C266.552 122.167 266.139 120.994 266.139 119.46V113.08H267.519V119.3C267.519 120.487 267.812 121.394 268.399 122.02C268.999 122.647 269.812 122.96 270.839 122.96C271.892 122.96 272.732 122.627 273.359 121.96C273.985 121.294 274.299 120.314 274.299 119.02V113.08H275.699Z" fill="#113855"/>
<path d="M279.595 111.02C279.315 111.02 279.075 110.92 278.875 110.72C278.675 110.52 278.575 110.274 278.575 109.98C278.575 109.687 278.675 109.447 278.875 109.26C279.075 109.06 279.315 108.96 279.595 108.96C279.875 108.96 280.115 109.06 280.315 109.26C280.515 109.447 280.615 109.687 280.615 109.98C280.615 110.274 280.515 110.52 280.315 110.72C280.115 110.92 279.875 111.02 279.595 111.02ZM280.295 113.08V124H278.895V113.08H280.295Z" fill="#113855"/>
<path d="M287.225 124.16C285.972 124.16 284.945 123.874 284.145 123.3C283.359 122.714 282.919 121.92 282.825 120.92H284.265C284.332 121.534 284.619 122.034 285.125 122.42C285.645 122.794 286.339 122.98 287.205 122.98C287.965 122.98 288.559 122.8 288.985 122.44C289.425 122.08 289.645 121.634 289.645 121.1C289.645 120.727 289.525 120.42 289.285 120.18C289.045 119.94 288.739 119.754 288.365 119.62C288.005 119.474 287.512 119.32 286.885 119.16C286.072 118.947 285.412 118.734 284.905 118.52C284.399 118.307 283.965 117.994 283.605 117.58C283.259 117.154 283.085 116.587 283.085 115.88C283.085 115.347 283.245 114.854 283.565 114.4C283.885 113.947 284.339 113.587 284.925 113.32C285.512 113.054 286.179 112.92 286.925 112.92C288.099 112.92 289.045 113.22 289.765 113.82C290.485 114.407 290.872 115.22 290.925 116.26H289.525C289.485 115.62 289.232 115.107 288.765 114.72C288.312 114.32 287.685 114.12 286.885 114.12C286.179 114.12 285.605 114.287 285.165 114.62C284.725 114.954 284.505 115.367 284.505 115.86C284.505 116.287 284.632 116.64 284.885 116.92C285.152 117.187 285.479 117.4 285.865 117.56C286.252 117.707 286.772 117.874 287.425 118.06C288.212 118.274 288.839 118.48 289.305 118.68C289.772 118.88 290.172 119.174 290.505 119.56C290.839 119.947 291.012 120.46 291.025 121.1C291.025 121.687 290.865 122.214 290.545 122.68C290.225 123.134 289.779 123.494 289.205 123.76C288.632 124.027 287.972 124.16 287.225 124.16Z" fill="#113855"/>
<path d="M297.541 122.64L301.221 113.08H302.701L298.321 124H296.741L292.361 113.08H293.861L297.541 122.64Z" fill="#113855"/>
<path d="M305.298 111.02C305.018 111.02 304.778 110.92 304.578 110.72C304.378 110.52 304.278 110.274 304.278 109.98C304.278 109.687 304.378 109.447 304.578 109.26C304.778 109.06 305.018 108.96 305.298 108.96C305.578 108.96 305.818 109.06 306.018 109.26C306.218 109.447 306.318 109.687 306.318 109.98C306.318 110.274 306.218 110.52 306.018 110.72C305.818 110.92 305.578 111.02 305.298 111.02ZM305.998 113.08V124H304.598V113.08H305.998Z" fill="#113855"/>
<path d="M310.568 109.2V124H309.168V109.2H310.568Z" fill="#113855"/>
<path d="M315.139 109.2V124H313.739V109.2H315.139Z" fill="#113855"/>
<path d="M328.189 117.98C328.189 118.46 328.176 118.827 328.149 119.08H319.089C319.129 119.907 319.329 120.614 319.689 121.2C320.049 121.787 320.522 122.234 321.109 122.54C321.696 122.834 322.336 122.98 323.029 122.98C323.936 122.98 324.696 122.76 325.309 122.32C325.936 121.88 326.349 121.287 326.549 120.54H328.029C327.762 121.607 327.189 122.48 326.309 123.16C325.442 123.827 324.349 124.16 323.029 124.16C322.002 124.16 321.082 123.934 320.269 123.48C319.456 123.014 318.816 122.36 318.349 121.52C317.896 120.667 317.669 119.674 317.669 118.54C317.669 117.407 317.896 116.414 318.349 115.56C318.802 114.707 319.436 114.054 320.249 113.6C321.062 113.147 321.989 112.92 323.029 112.92C324.069 112.92 324.976 113.147 325.749 113.6C326.536 114.054 327.136 114.667 327.549 115.44C327.976 116.2 328.189 117.047 328.189 117.98ZM326.769 117.94C326.782 117.127 326.616 116.434 326.269 115.86C325.936 115.287 325.476 114.854 324.889 114.56C324.302 114.267 323.662 114.12 322.969 114.12C321.929 114.12 321.042 114.454 320.309 115.12C319.576 115.787 319.169 116.727 319.089 117.94H326.769Z" fill="#113855"/>
</g>
<defs>
<clipPath id="clip0_31_2920">
<rect width="342" height="143" fill="white"/>
</clipPath>
</defs>
</svg>
